<?xml version="1.0" encoding="UTF-8"?>
<svg width="21px" height="18px" viewBox="0 0 21 18" version="1.1" xmlns="http://www.w3.org/2000/svg" xmlns:xlink="http://www.w3.org/1999/xlink">
    <!-- Generator: sketchtool 52 (66869) - http://www.bohemiancoding.com/sketch -->
    <title>5A638A3C-4BC0-4980-9EAF-6F5ED325890A</title>
    <desc>Created with sketchtool.</desc>
    <g id="Page-1" stroke="none" stroke-width="1" fill="none" fill-rule="evenodd">
        <g id="Current-track" transform="translate(-1785.000000, -624.000000)" fill="#FFFFFF">
            <g id="weather-widget" transform="translate(1539.000000, 59.000000)">
                <g id="weather-per-hours" transform="translate(11.000000, 477.000000)">
                    <g id="Group" transform="translate(1.000000, 44.000000)">
                        <g id="weather-per-hour" transform="translate(220.000000, 0.000000)">
                            <g id="RAIN-CLOUD" transform="translate(14.000000, 44.000000)">
                                <path d="M5.5,14 C5.203125,14 5,14.1324367 5,14.3345586 L5,15.6655111 C5,15.864079 5.19791667,16 5.5,16 C5.80208333,16 6,15.867633 6,15.6655111 L6,14.3345586 C6,14.135921 5.796875,14 5.5,14 Z" id="Path"></path>
                                <path d="M8.5,16 C8.203125,16 8,16.1324367 8,16.3344889 L8,17.6655111 C8,17.864079 8.19791667,18 8.5,18 C8.80208333,18 9,17.8675633 9,17.6655111 L9,16.3344889 C9,16.1324367 8.796875,16 8.5,16 Z" id="Path"></path>
                                <path d="M10.499974,14 C10.2031665,14 10,14.1324367 10,14.3345586 L10,15.6655111 C10,15.864079 10.1979064,16 10.499974,16 C10.8020936,16 11,15.867633 11,15.6655111 L11,14.3345586 C10.9947399,14.135921 10.7968335,14 10.499974,14 Z" id="Path"></path>
                                <path d="M18.6734395,5.658259 C18.6734395,3.36296524 16.7291853,1.52752999 14.3945427,1.52752999 C13.5403902,1.52752999 12.8407987,1.75545986 12.1371398,2.13934174 C11.1243591,0.839741618 9.57061518,0 7.78096249,0 C4.7466877,0 2.33472396,2.37127038 2.33472396,5.35435251 C2.33472396,5.43032913 2.33472396,5.58228237 2.33472396,5.658259 C0.93550027,6.27007075 0,7.56967087 0,9.17717625 C0,11.316518 1.71237223,13 3.88842721,13 L17.1115202,13 C19.2875751,13 20.9999474,11.316518 20.9999474,9.17717625 C21.0080822,7.56967087 20.0725819,6.27007075 18.6734395,5.658259 Z M17.1155875,12.236235 L3.8924946,12.236235 C2.18012237,12.236235 0.780939356,10.8606583 0.780939356,9.17717625 C0.780939356,7.72562289 1.79372008,6.50199938 3.1929031,6.19409412 C3.11562264,5.88618886 3.11562264,5.658259 3.11562264,5.35435251 C3.11562264,2.83112888 5.21439716,0.763764995 7.7849892,0.763764995 C9.57464189,0.763764995 11.2056663,1.75945863 11.9866056,3.28698862 C12.6089167,2.67517687 13.4630691,2.29129499 14.3985694,2.29129499 C16.342783,2.29129499 17.900635,3.81882498 17.900635,5.73423562 C17.900635,5.88618886 17.900635,6.03814211 17.900635,6.19409412 C19.2225375,6.49800062 20.2352776,7.72162412 20.2352776,9.17717625 C20.2271428,10.8606583 18.8279598,12.236235 17.1155875,12.236235 Z" id="Shape" fill-rule="nonzero"></path>
                                <path d="M15.499974,14 C15.2031144,14 15,14.1324367 15,14.3345586 L15,15.6655111 C15,15.864079 15.1979064,16 15.499974,16 C15.8020416,16 16,15.867633 16,15.6655111 L16,14.3345586 C16,14.135921 15.7968335,14 15.499974,14 Z" id="Path"></path>
                                <path d="M12.500026,16 C12.2031665,16 12,16.1324367 12,16.3344889 L12,17.6655111 C12,17.864079 12.1979064,18 12.500026,18 C12.8020936,18 13,17.8675633 13,17.6655111 L13,16.3344889 C12.9999479,16.1324367 12.8020416,16 12.500026,16 Z" id="Path"></path>
                            </g>
                        </g>
                    </g>
                </g>
            </g>
        </g>
    </g>
</svg>