<?xml version="1.0" encoding="UTF-8"?>
<svg width="21px" height="21px" viewBox="0 0 21 21" version="1.1" xmlns="http://www.w3.org/2000/svg" xmlns:xlink="http://www.w3.org/1999/xlink">
    <!-- Generator: sketchtool 52 (66869) - http://www.bohemiancoding.com/sketch -->
    <title>F2124E85-C8A2-42E4-9CCD-1A084891BEAF</title>
    <desc>Created with sketchtool.</desc>
    <g id="Page-1" stroke="none" stroke-width="1" fill="none" fill-rule="evenodd">
        <g id="Current-track" transform="translate(-1565.000000, -622.000000)" fill="#FFFFFF" fill-rule="nonzero">
            <g id="weather-widget" transform="translate(1539.000000, 59.000000)">
                <g id="weather-per-hours" transform="translate(11.000000, 477.000000)">
                    <g id="Group" transform="translate(1.000000, 44.000000)">
                        <g id="weather-per-hour">
                            <g id="sun-day-weather-symbol-(1)" transform="translate(14.000000, 42.000000)">
                                <path d="M2.625,9.84375 L0.65625,9.84375 C0.294,9.84375 0,10.13775 0,10.5 C0,10.86225 0.294,11.15625 0.65625,11.15625 L2.625,11.15625 C2.98725,11.15625 3.28125,10.86225 3.28125,10.5 C3.28125,10.13775 2.98725,9.84375 2.625,9.84375 Z M10.5,3.28125 C10.86225,3.28125 11.15625,2.98725 11.15625,2.625 L11.15625,0.65625 C11.15625,0.294 10.86225,0 10.5,0 C10.13775,0 9.84375,0.294 9.84375,0.65625 L9.84375,2.625 C9.84375,2.98725 10.13775,3.28125 10.5,3.28125 Z M16.8137941,5.10560784 L18.1925882,3.72681373 C18.4465441,3.47285784 18.4465441,3.06136765 18.1925882,2.80741176 C17.9386324,2.55345588 17.5271078,2.55345588 17.273152,2.80741176 L15.8943578,4.18620588 C15.640402,4.44016176 15.640402,4.85165196 15.8943578,5.10560784 C16.148348,5.35959804 16.5598382,5.35959804 16.8137941,5.10560784 Z M4.86280392,15.2184461 L3.4840098,16.5972402 C3.23005392,16.8511961 3.23005392,17.2626863 3.4840098,17.5166422 C3.73796569,17.770598 4.14945588,17.770598 4.40341176,17.5166422 L5.78220588,16.137848 C6.03616176,15.8838922 6.03616176,15.472402 5.78220588,15.2184461 C5.52825,14.9644902 5.11679412,14.9644559 4.86280392,15.2184461 Z M4.46775,5.39569608 C4.72434804,5.65229412 5.13975,5.65229412 5.39566176,5.39569608 C5.65160784,5.13909804 5.65160784,4.72369608 5.39566176,4.46778431 L4.00379412,3.07519608 C3.74719608,2.81859804 3.33179412,2.81859804 3.07584804,3.07519608 C2.81925,3.33179412 2.81925,3.74719608 3.07584804,4.00314216 L4.46775,5.39569608 Z M10.5,17.71875 C10.13775,17.71875 9.84375,18.01275 9.84375,18.375 L9.84375,20.34375 C9.84375,20.706 10.13775,21 10.5,21 C10.86225,21 11.15625,20.706 11.15625,20.34375 L11.15625,18.375 C11.15625,18.01275 10.86225,17.71875 10.5,17.71875 Z M16.53225,15.6043039 C16.275652,15.3477059 15.86025,15.3477059 15.6043039,15.6043039 C15.3477059,15.8609363 15.3477059,16.2763039 15.6043039,16.53225 L16.9962059,17.924152 C17.2528039,18.18075 17.6682059,18.18075 17.924152,17.924152 C18.180098,17.6675196 18.18075,17.252152 17.924152,16.9962059 L16.53225,15.6043039 Z M20.34375,9.84375 L18.375,9.84375 C18.01275,9.84375 17.71875,10.13775 17.71875,10.5 C17.71875,10.86225 18.01275,11.15625 18.375,11.15625 L20.34375,11.15625 C20.706,11.15625 21,10.86225 21,10.5 C21,10.13775 20.706,9.84375 20.34375,9.84375 Z M10.5,4.58980392 C7.23580392,4.58980392 4.58980392,7.23580392 4.58980392,10.5 C4.58980392,13.7641961 7.23580392,16.4101961 10.5,16.4101961 C13.7641961,16.4101961 16.4101961,13.7641961 16.4101961,10.5 C16.4101961,7.23580392 13.7641961,4.58980392 10.5,4.58980392 Z M10.5,15.0924461 C7.96359804,15.0924461 5.90755392,13.036402 5.90755392,10.5 C5.90755392,7.96359804 7.96359804,5.90755392 10.5,5.90755392 C13.036402,5.90755392 15.0924461,7.96359804 15.0924461,10.5 C15.0924461,13.036402 13.036402,15.0924461 10.5,15.0924461 Z" id="Shape"></path>
                            </g>
                        </g>
                    </g>
                </g>
            </g>
        </g>
    </g>
</svg>