<?xml version="1.0" encoding="UTF-8"?>
<svg width="24px" height="26px" viewBox="0 0 24 26" version="1.1" xmlns="http://www.w3.org/2000/svg" xmlns:xlink="http://www.w3.org/1999/xlink">
    <!-- Generator: Sketch 52 (66869) - http://www.bohemiancoding.com/sketch -->
    <title>snow flake</title>
    <desc>Created with Sketch.</desc>
    <defs>
        <filter x="-70.6%" y="-66.7%" width="241.2%" height="233.3%" filterUnits="objectBoundingBox" id="filter-1">
            <feOffset dx="0" dy="2" in="SourceAlpha" result="shadowOffsetOuter1"></feOffset>
            <feGaussianBlur stdDeviation="2" in="shadowOffsetOuter1" result="shadowBlurOuter1"></feGaussianBlur>
            <feColorMatrix values="0 0 0 0 0   0 0 0 0 0   0 0 0 0 0  0 0 0 0.5 0" type="matrix" in="shadowBlurOuter1" result="shadowMatrixOuter1"></feColorMatrix>
            <feMerge>
                <feMergeNode in="shadowMatrixOuter1"></feMergeNode>
                <feMergeNode in="SourceGraphic"></feMergeNode>
            </feMerge>
        </filter>
    </defs>
    <g id="Page-1" stroke="none" stroke-width="1" fill="none" fill-rule="evenodd">
        <g id="Current-track" transform="translate(-1728.000000, -729.000000)" fill="#FFFFFF">
            <g id="weather-widget" transform="translate(1539.000000, 59.000000)">
                <g id="weather-per-hours" transform="translate(11.000000, 477.000000)">
                    <g id="Group" transform="translate(1.000000, 44.000000)">
                        <g id="weather-per-hour" transform="translate(162.000000, 107.000000)">
                            <g id="snow-flake" filter="url(#filter-1)" transform="translate(19.000000, 44.000000)">
                                <path d="M15.644886,10.2115385 L13.315359,11.5961538 L11.9593657,10.8346154 L12.9676684,10.2461538 C13.1415137,10.1423077 13.1762828,9.93461538 13.1067447,9.76153846 C13.0372065,9.58846154 12.7938231,9.55384615 12.6199778,9.62307692 L11.2639845,10.4192308 L8.7953812,9 L11.2639845,7.58076923 L12.6199778,8.37692308 C12.6895159,8.41153846 12.724285,8.41153846 12.7938231,8.41153846 C12.8981303,8.41153846 13.0372065,8.34230769 13.1067447,8.23846154 C13.2110518,8.06538462 13.1415137,7.85769231 12.9676684,7.75384615 L11.9593657,7.16538462 L13.315359,6.40384615 L15.644886,7.78846154 C15.7144242,7.82307692 15.7491932,7.82307692 15.8187313,7.82307692 C15.9230385,7.82307692 16.0621148,7.75384615 16.1316529,7.65 C16.2359601,7.47692308 16.1664219,7.26923077 15.9925766,7.16538462 L13.9759712,5.98846154 L15.7839623,4.95 C15.9578076,4.84615385 15.9925766,4.63846154 15.9230385,4.46538462 C15.8187313,4.29230769 15.610117,4.25769231 15.4362717,4.32692308 L13.6282806,5.36538462 L13.5935115,3.04615385 C13.5935115,2.87307692 13.4196662,2.7 13.2458209,2.7 C13.2458209,2.7 13.2458209,2.7 13.2458209,2.7 C13.0372065,2.7 12.8981303,2.87307692 12.8981303,3.04615385 L12.9328994,5.74615385 L11.6116751,6.57692308 L11.6116751,5.4 C11.6116751,5.22692308 11.4378298,5.05384615 11.2639845,5.05384615 C11.2639845,5.05384615 11.2639845,5.05384615 11.2639845,5.05384615 C11.0553701,5.05384615 10.9162939,5.22692308 10.9162939,5.4 L10.9162939,6.95769231 L8.4476906,8.41153846 L8.4476906,5.57307692 L9.838453,4.81153846 C10.0122983,4.70769231 10.0818364,4.5 9.97752924,4.32692308 C9.87322206,4.15384615 9.6646077,4.08461538 9.4907624,4.18846154 L8.4476906,4.77692308 L8.4476906,3.25384615 L10.8119867,1.93846154 C10.985832,1.83461538 11.0553701,1.62692308 10.9510629,1.45384615 C10.8467557,1.28076923 10.6381414,1.21153846 10.4642961,1.31538462 L8.4476906,2.42307692 L8.4476906,0.346153846 C8.4476906,0.138461538 8.30861436,0 8.1,0 C7.89138564,0 7.7523094,0.138461538 7.7523094,0.346153846 L7.7523094,2.42307692 L5.73570391,1.28076923 C5.56185861,1.17692308 5.35324425,1.24615385 5.24893707,1.41923077 C5.14462989,1.59230769 5.21416801,1.8 5.38801331,1.90384615 L7.7523094,3.21923077 L7.7523094,4.74230769 L6.7092376,4.15384615 C6.5353923,4.05 6.32677794,4.11923077 6.22247076,4.29230769 C6.11816357,4.46538462 6.1877017,4.67307692 6.361547,4.77692308 L7.7523094,5.53846154 L7.7523094,8.37692308 L5.28370613,6.95769231 L5.28370613,5.4 C5.28370613,5.19230769 5.14462989,5.05384615 4.93601553,5.05384615 C4.72740117,5.05384615 4.58832493,5.19230769 4.58832493,5.4 L4.58832493,6.57692308 L3.23233159,5.81538462 L3.26710065,3.11538462 C3.26710065,2.90769231 3.12802441,2.76923077 2.91941005,2.76923077 C2.91941005,2.76923077 2.91941005,2.76923077 2.91941005,2.76923077 C2.74556475,2.76923077 2.57171945,2.90769231 2.57171945,3.11538462 L2.53695039,5.43461538 L0.728959261,4.39615385 C0.555113961,4.29230769 0.3464996,4.36153846 0.24219242,4.53461538 C0.13788524,4.70769231 0.20742336,4.91538462 0.38126866,5.01923077 L2.18925978,6.05769231 L0.1726543,7.23461538 C-0.00119100067,7.33846154 -0.0359600608,7.54615385 0.0335780594,7.71923077 C0.10311618,7.82307692 0.20742336,7.89230769 0.3464996,7.89230769 C0.41603772,7.89230769 0.45080678,7.89230769 0.520344901,7.85769231 L2.84987193,6.47307692 L4.20586527,7.23461538 L3.23233159,7.78846154 C3.05848629,7.89230769 3.02371723,8.1 3.09325535,8.27307692 C3.16279347,8.37692308 3.26710065,8.44615385 3.40617689,8.44615385 C3.47571501,8.44615385 3.51048407,8.44615385 3.58002219,8.41153846 L4.93601553,7.61538462 L7.4046188,9 L4.93601553,10.4192308 L3.58002219,9.62307692 C3.40617689,9.51923077 3.19756253,9.58846154 3.09325535,9.76153846 C2.98894817,9.93461538 3.05848629,10.1423077 3.23233159,10.2461538 L4.24063433,10.8346154 L2.88464099,11.5961538 L0.555113961,10.2115385 C0.38126866,10.1076923 0.1726543,10.1769231 0.0683471195,10.35 C-0.0359600608,10.5230769 0.0335780594,10.7307692 0.20742336,10.8346154 L2.22402885,12.0115385 L0.41603772,13.05 C0.24219242,13.1538462 0.20742336,13.3615385 0.27696148,13.5346154 C0.3464996,13.6384615 0.45080678,13.7076923 0.589883021,13.7076923 C0.659421141,13.7076923 0.694190201,13.7076923 0.763728321,13.6730769 L2.57171945,12.6346154 L2.60648851,14.9538462 C2.60648851,15.1269231 2.78033381,15.3 2.95417911,15.3 C2.95417911,15.3 2.95417911,15.3 2.95417911,15.3 C3.16279347,15.3 3.30186971,15.1269231 3.30186971,14.9538462 L3.26710065,12.2538462 L4.62309399,11.4923077 L4.62309399,12.6692308 C4.62309399,12.8423077 4.79693929,13.0153846 4.97078459,13.0153846 C4.97078459,13.0153846 4.97078459,13.0153846 4.97078459,13.0153846 C5.17939895,13.0153846 5.31847519,12.8423077 5.31847519,12.6692308 L5.31847519,11.1115385 L7.78707846,9.69230769 L7.78707846,12.5307692 L6.39631606,13.2923077 C6.22247076,13.3961538 6.15293264,13.6038462 6.25723982,13.7769231 C6.361547,13.95 6.57016136,14.0192308 6.74400666,13.9153846 L7.78707846,13.3269231 L7.78707846,14.85 L5.42278237,16.1653846 C5.24893707,16.2692308 5.17939895,16.4769231 5.28370613,16.65 C5.38801331,16.8230769 5.59662767,16.8923077 5.77047297,16.7884615 L7.7523094,15.5769231 L7.7523094,17.6538462 C7.7523094,17.8615385 7.89138564,18 8.1,18 C8.30861436,18 8.4476906,17.8615385 8.4476906,17.6538462 L8.4476906,15.5769231 L10.4642961,16.7192308 C10.5338342,16.7538462 10.5686033,16.7538462 10.6381414,16.7538462 C10.7424486,16.7538462 10.8815248,16.6846154 10.9510629,16.5807692 C11.0553701,16.4076923 10.985832,16.2 10.8119867,16.0961538 L8.4476906,14.7807692 L8.4476906,13.2576923 L9.4907624,13.8461538 C9.56030052,13.8807692 9.59506958,13.8807692 9.6646077,13.8807692 C9.76891488,13.8807692 9.90799112,13.8115385 9.97752924,13.7076923 C10.0818364,13.5346154 10.0122983,13.3269231 9.838453,13.2230769 L8.4476906,12.4615385 L8.4476906,9.62307692 L10.9162939,11.0423077 L10.9162939,12.6 C10.9162939,12.8076923 11.0553701,12.9461538 11.2639845,12.9461538 C11.2639845,12.9461538 11.2639845,12.9461538 11.2639845,12.9461538 C11.4378298,12.9461538 11.6116751,12.8076923 11.6116751,12.6 L11.6116751,11.4230769 L12.9676684,12.1846154 L12.9328994,14.8846154 C12.9328994,15.0923077 13.0719756,15.2307692 13.28059,15.2307692 C13.28059,15.2307692 13.28059,15.2307692 13.28059,15.2307692 C13.4544353,15.2307692 13.6282806,15.0923077 13.6282806,14.8846154 L13.6630496,12.5653846 L15.4710407,13.6038462 C15.5405789,13.6384615 15.5753479,13.6384615 15.644886,13.6384615 C15.7491932,13.6384615 15.8882695,13.5692308 15.9578076,13.4653846 C16.0621148,13.2923077 15.9925766,13.0846154 15.8187313,12.9807692 L14.0107402,11.9423077 L16.0273457,10.7653846 C16.201191,10.6615385 16.2359601,10.4538462 16.1664219,10.2807692 C16.0273457,10.1769231 15.8187313,10.1076923 15.644886,10.2115385 Z" id="Path"></path>
                            </g>
                        </g>
                    </g>
                </g>
            </g>
        </g>
    </g>
</svg>