<?xml version="1.0" encoding="UTF-8"?>
<svg width="18px" height="18px" viewBox="0 0 18 18" version="1.1" xmlns="http://www.w3.org/2000/svg" xmlns:xlink="http://www.w3.org/1999/xlink">
    <!-- Generator: Sketch 52 (66869) - http://www.bohemiancoding.com/sketch -->
    <title>noun_Moon_2131059</title>
    <desc>Created with Sketch.</desc>
    <g id="Page-1" stroke="none" stroke-width="1" fill="none" fill-rule="evenodd">
        <g id="Current-track" transform="translate(-1619.000000, -730.000000)" fill="#FFFFFF" fill-rule="nonzero">
            <g id="weather-widget" transform="translate(1539.000000, 59.000000)">
                <g id="weather-per-hours" transform="translate(11.000000, 477.000000)">
                    <g id="Group" transform="translate(1.000000, 44.000000)">
                        <g id="weather-per-hour" transform="translate(52.000000, 107.000000)">
                            <g id="noun_Moon_2131059" transform="translate(16.000000, 43.000000)">
                                <path d="M9.34851064,18 C4.86895258,18.0339647 1.04695572,14.7669591 0.383378872,10.3366927 C-0.280197976,5.90642642 2.41686366,1.66297916 6.70978723,0.382978723 C6.85912878,0.336827619 7.02153031,0.386065883 7.12009825,0.507380276 C7.2186662,0.628694669 7.23361722,0.79773647 7.15787234,0.934468085 C5.52675683,3.8674488 5.83986062,7.49703771 7.94916452,10.1073539 C10.0584684,12.7176701 13.5414313,13.7858084 16.7514894,12.8068085 C16.9147244,12.7340246 17.1065992,12.7838233 17.2138351,12.9268045 C17.321071,13.0697857 17.3151528,13.2679292 17.1995745,13.4042553 C15.6046031,16.2416535 12.6034699,17.9984145 9.34851064,18 Z M6.0587234,1.45531915 C2.87102043,2.83798748 0.895066264,6.07362894 1.12096985,9.54093186 C1.34687344,13.0082348 3.72596162,15.9601342 7.06612346,16.9174955 C10.4062853,17.8748569 13.9878497,16.6314071 16.0161702,13.8102128 C12.7548472,14.4290082 9.41777756,13.2015557 7.33473113,10.6169757 C5.2516847,8.03239583 4.76119844,4.51073479 6.0587234,1.45531915 Z" id="Shape"></path>
                            </g>
                        </g>
                    </g>
                </g>
            </g>
        </g>
    </g>
</svg>