<?xml version="1.0" encoding="UTF-8"?>
<svg width="22px" height="14px" viewBox="0 0 22 14" version="1.1" xmlns="http://www.w3.org/2000/svg" xmlns:xlink="http://www.w3.org/1999/xlink">
    <!-- Generator: Sketch 52 (66869) - http://www.bohemiancoding.com/sketch -->
    <title>cloud only</title>
    <desc>Created with Sketch.</desc>
    <g id="Page-1" stroke="none" stroke-width="1" fill="none" fill-rule="evenodd">
        <g id="Current-track" transform="translate(-1677.000000, -624.000000)" fill="#FFFFFF" fill-rule="nonzero">
            <g id="weather-widget" transform="translate(1539.000000, 59.000000)">
                <g id="weather-per-hours" transform="translate(11.000000, 477.000000)">
                    <g id="Group" transform="translate(1.000000, 44.000000)">
                        <g id="weather-per-hour" transform="translate(113.000000, 0.000000)">
                            <g id="snow-cloud" transform="translate(13.000000, 44.000000)">
                                <path d="M18.7722408,5.70662019 C18.7722408,3.39170853 16.8176995,1.5405858 14.4707043,1.5405858 C13.6120325,1.5405858 12.9087395,1.77046379 12.2013575,2.15762671 C11.1832181,0.846918897 9.62125335,0 7.8221316,0 C4.77180245,0 2.34707699,2.39153765 2.34707699,5.4001162 C2.34707699,5.4767422 2.34707699,5.62999419 2.34707699,5.70662019 C0.940450007,6.3236611 0,7.63436891 0,9.25561366 C0,11.4132404 1.7214324,13.1111111 3.9090009,13.1111111 L17.2020573,13.1111111 C19.3896258,13.1111111 21.1110582,11.4132404 21.1110582,9.25561366 C21.119236,7.63436891 20.178786,6.3236611 18.7722408,5.70662019 Z M17.2061462,12.3408182 L3.91308981,12.3408182 C2.19165741,12.3408182 0.78507131,10.9534844 0.78507131,9.25561366 C0.78507131,7.79165385 1.80321067,6.55757203 3.20979676,6.2470351 C3.13210741,5.93649817 3.13210741,5.70662019 3.13210741,5.4001162 C3.13210741,2.85532657 5.24198656,0.770292901 7.82617962,0.770292901 C9.62530138,0.770292901 11.2649555,1.77449674 12.0500268,3.31508254 C12.6756305,2.69804163 13.5343023,2.3108787 14.4747523,2.3108787 C16.4292527,2.3108787 17.9953473,3.85146451 17.9953473,5.78324618 C17.9953473,5.93649817 17.9953473,6.08975016 17.9953473,6.2470351 C19.3242441,6.55353908 20.3423425,7.7876209 20.3423425,9.25561366 C20.3341647,10.9534844 18.9275786,12.3408182 17.2061462,12.3408182 Z" id="cloud-only"></path>
                            </g>
                        </g>
                    </g>
                </g>
            </g>
        </g>
    </g>
</svg>