<?xml version="1.0" encoding="UTF-8"?>
<svg width="7px" height="13px" viewBox="0 0 7 13" version="1.1" xmlns="http://www.w3.org/2000/svg" xmlns:xlink="http://www.w3.org/1999/xlink">
    <!-- Generator: sketchtool 52 (66869) - http://www.bohemiancoding.com/sketch -->
    <title>772D9B24-943C-4A0E-B937-0BE28D6838B6</title>
    <desc>Created with sketchtool.</desc>
    <g id="Page-1" stroke="none" stroke-width="1" fill="none" fill-rule="evenodd">
        <g id="Current-track" transform="translate(-1788.000000, -733.000000)" fill="#FFFFFF" fill-rule="nonzero">
            <g id="weather-widget" transform="translate(1539.000000, 59.000000)">
                <g id="weather-per-hours" transform="translate(8.000000, 477.000000)">
                    <g id="Group" transform="translate(0.000000, 44.000000)">
                        <g id="weather-per-hour" transform="translate(222.000000, 107.000000)">
                            <g id="thunder" transform="translate(19.000000, 45.500000)">
                                <path d="M0.801321053,13.5 C0.765080394,13.5 0.728839734,13.4913394 0.696348109,13.4732309 C0.609287215,13.4252039 0.570963759,13.3256069 0.605538181,13.2358515 L2.78122741,7.5832317 L0.151488543,6.87424304 C0.0835893766,6.8561345 0.0298532267,6.80653285 0.00902526164,6.7427593 C-0.0113861441,6.67898575 0.00319343143,6.60930724 0.0490149546,6.55813093 L5.38305681,0.569715807 C5.44637382,0.498462642 5.55384612,0.479960439 5.64049046,0.522869803 C5.72713479,0.566566495 5.7700404,0.662226821 5.74254749,0.751194861 L4.20461054,5.79284832 L6.84851243,6.50577363 C6.91682816,6.52388217 6.97056431,6.57387749 6.99097571,6.6380447 C7.01180368,6.70221191 6.99597442,6.77228409 6.94973634,6.82306673 L0.959613587,13.4315025 C0.918790776,13.4759865 0.860472474,13.5 0.801321053,13.5 Z M0.574712793,6.57899512 L3.11030926,7.26200197 C3.16612821,7.2769612 3.21236629,7.31317827 3.23902608,7.36159893 C3.26526932,7.41041326 3.26901835,7.46710086 3.24902351,7.51827716 L1.38866967,12.3516824 L6.42195571,6.79905323 L3.88969171,6.11683371 C3.83637212,6.10266181 3.79138372,6.06880671 3.76430736,6.0231417 C3.73723101,5.97747669 3.73098262,5.92354474 3.74639531,5.87315576 L5.07105389,1.53143669 L0.574712793,6.57899512 Z" id="Shape"></path>
                            </g>
                        </g>
                    </g>
                </g>
            </g>
        </g>
    </g>
</svg>