<?xml version="1.0" encoding="UTF-8"?>
<svg width="32px" height="27px" viewBox="0 0 32 27" version="1.1" xmlns="http://www.w3.org/2000/svg" xmlns:xlink="http://www.w3.org/1999/xlink">
    <!-- Generator: Sketch 52 (66869) - http://www.bohemiancoding.com/sketch -->
    <title>icon humidity</title>
    <desc>Created with Sketch.</desc>
    <g id="Page-1" stroke="none" stroke-width="1" fill="none" fill-rule="evenodd">
        <g id="Current-track" transform="translate(-1712.000000, -262.000000)" fill="#FFFFFF">
            <g id="weather-widget" transform="translate(1539.000000, 59.000000)">
                <g id="weather-details" transform="translate(11.000000, 137.000000)">
                    <g id="detail-humidity" transform="translate(125.000000, 52.000000)">
                        <g id="icon-humidity" transform="translate(37.000000, 14.000000)">
                            <path d="M3,6 C-1,14 -1,18 3,18 C7,18 7,14 3,6 Z" id="Path-2"></path>
                            <path d="M21.5,14 C18.1666667,20 18.1666667,23 21.5,23 C24.8333333,23 24.8333333,20 21.5,14 Z" id="Path-2"></path>
                            <path d="M15.5,0 C12.1666667,6.66666667 12.1666667,10 15.5,10 C18.8333333,10 18.8333333,6.66666667 15.5,0 Z" id="Path-2"></path>
                            <path d="M30,11 C27.3333333,14.3333333 27.3333333,16 30,16 C32.6666667,16 32.6666667,14.3333333 30,11 Z" id="Path-2"></path>
                            <path d="M11,18 C8.33333333,24 8.33333333,27 11,27 C13.6666667,27 13.6666667,24 11,18 Z" id="Path-2"></path>
                        </g>
                    </g>
                </g>
            </g>
        </g>
    </g>
</svg>