<?xml version="1.0" encoding="UTF-8"?>
<svg width="26px" height="24px" viewBox="0 0 26 24" version="1.1" xmlns="http://www.w3.org/2000/svg" xmlns:xlink="http://www.w3.org/1999/xlink">
    <!-- Generator: Sketch 52 (66869) - http://www.bohemiancoding.com/sketch -->
    <title>wind</title>
    <desc>Created with Sketch.</desc>
    <g id="Page-1" stroke="none" stroke-width="1" fill="none" fill-rule="evenodd">
        <g id="Current-track" transform="translate(-1715.000000, -391.000000)" fill="#FFFFFF">
            <g id="weather-widget" transform="translate(1539.000000, 59.000000)">
                <g id="weather-details" transform="translate(11.000000, 137.000000)">
                    <g id="detail-wind-speed" transform="translate(125.000000, 177.000000)">
                        <g id="wind" transform="translate(40.000000, 18.000000)">
                            <path d="M21.7755078,13 L0.533593107,13 C0.238836274,13 0,12.7458136 0,12.4322817 C0,12.1187498 0.238836274,11.8645634 0.533593107,11.8645634 L21.6723465,11.8645634 C21.7057138,11.8575994 21.7402195,11.853966 21.7755078,11.853966 C23.5164442,11.853966 24.9328138,10.3470146 24.9328138,8.49473914 C24.9328138,6.64246365 23.5164442,5.13543655 21.7755078,5.13543655 C20.0345714,5.13543655 18.6182018,6.64238795 18.6182018,8.49466345 C18.6182018,8.80819533 18.3793655,9.06238173 18.0846087,9.06238173 C17.7898519,9.06238173 17.5510156,8.80819533 17.5510156,8.49466345 C17.5510156,6.01630823 19.4461249,4 21.7755078,4 C24.1048907,4 26,6.01630823 26,8.49466345 C26,10.9338839 24.1643686,12.9255154 21.8857126,12.987813 C21.8501397,12.9958367 21.8133573,13 21.7755078,13 Z" id="Path"></path>
                            <path d="M10.7919976,9 L0.531510292,9 C0.237904007,9 0,8.74581147 0,8.43227695 C0,8.11874243 0.237904007,7.8645539 0.531510292,7.8645539 L10.6892389,7.8645539 C10.722476,7.85758983 10.756847,7.8539564 10.7919976,7.8539564 C12.5261385,7.8539564 13.9369794,6.34699233 13.9369794,4.49470125 C13.9369794,2.64241017 12.5261385,1.1354461 10.7919976,1.1354461 C9.0577858,1.1354461 7.64694488,2.64241017 7.64694488,4.49470125 C7.64694488,4.80823577 7.40904087,5.0624243 7.11543459,5.0624243 C6.8218283,5.0624243 6.58392429,4.80823577 6.58392429,4.49470125 C6.58392429,2.01632519 8.47170712,0 10.7919976,0 C13.112288,0 15,2.01632519 15,4.49470125 C15,6.93394227 13.1715337,8.92559043 10.9017722,8.98788857 C10.8663382,8.995761 10.8296285,9 10.7919976,9 Z" id="Path"></path>
                            <path d="M17.6967361,24 C15.3239185,24 13.3933997,21.9812978 13.3933997,19.5 C13.3933997,19.1860959 13.6366895,18.9316077 13.9369425,18.9316077 C14.2371955,18.9316077 14.4804852,19.1860959 14.4804852,19.5 C14.4804852,21.3544747 15.9232649,22.8632153 17.6967361,22.8632153 C19.4701348,22.8632153 20.9129146,21.3544747 20.9129146,19.5 C20.9129146,17.6455253 19.4701348,16.1367847 17.6967361,16.1367847 L0.543542713,16.1367847 C0.243289718,16.1367847 0,15.8822965 0,15.5683923 C0,15.2544882 0.243289718,15 0.543542713,15 L17.6967361,15 C20.0695537,15 22,17.0187022 22,19.5 C22,21.9812978 20.0695537,24 17.6967361,24 Z" id="Path"></path>
                        </g>
                    </g>
                </g>
            </g>
        </g>
    </g>
</svg>