<?xml version="1.0" encoding="UTF-8"?>
<svg width="26px" height="26px" viewBox="0 0 26 26" version="1.1" xmlns="http://www.w3.org/2000/svg" xmlns:xlink="http://www.w3.org/1999/xlink">
    <!-- Generator: Sketch 52 (66869) - http://www.bohemiancoding.com/sketch -->
    <title>compass-tool</title>
    <desc>Created with Sketch.</desc>
    <g id="Page-1" stroke="none" stroke-width="1" fill="none" fill-rule="evenodd">
        <g id="Current-track" transform="translate(-1590.000000, -391.000000)" fill="#FFFFFF">
            <g id="weather-widget" transform="translate(1539.000000, 59.000000)">
                <g id="weather-details" transform="translate(11.000000, 137.000000)">
                    <g id="detail-wind-deg" transform="translate(0.000000, 177.000000)">
                        <g id="compass-tool" transform="translate(40.000000, 18.000000)">
                            <path d="M12.499974,21 C12.2031665,21 12,21.1488231 12,21.3760134 L12,23.6239866 C12,23.8472213 12.1979064,24 12.499974,24 C12.8020936,24 13,23.8511377 13,23.6239866 L13,21.3759742 C12.9947399,21.1488231 12.7968335,21 12.499974,21 Z" id="Path"></path>
                            <path d="M5,12.499974 C5,12.2031665 4.85117493,12 4.62402089,12 L2.37597911,12 C2.15274151,12 2,12.2968595 2,12.499974 C2,12.7968335 2.14882507,13 2.30156658,13 L4.54960836,13 C4.7767624,12.9947399 5,12.7968335 5,12.499974 Z" id="Path"></path>
                            <path d="M12.499974,5 C12.7968335,5 13,4.85117493 13,4.62402089 L13,2.37597911 C13,2.15274151 12.8020936,2 12.499974,2 C12.1979064,2 12,2.14882507 12,2.37597911 L12,4.62402089 C12,4.85117493 12.1979064,5 12.499974,5 Z" id="Path"></path>
                            <path d="M11.1182208,11.1182208 C9.23917284,12.9972688 6,20 6,20 C6,20 13.0027312,16.6570425 14.8817792,14.8817792 C16.7608272,13.1065158 20,6 20,6 C20,6 13.0027312,9.34295747 11.1182208,11.1182208 Z M14.1498244,14.1498244 C13.5216543,14.7779945 12.5821849,14.7779945 11.9539602,14.1498244 C11.3257901,13.5216543 11.3257901,12.5821849 11.9539602,11.9539602 C12.5821303,11.3257901 13.5216543,11.3257901 14.1498244,11.9539602 C14.6742099,12.4783457 14.6742099,13.5216543 14.1498244,14.1498244 Z" id="Shape" fill-rule="nonzero"></path>
                            <path d="M13,0 C5.82308657,0 0,5.82308657 0,13 C0,20.1769134 5.82308657,26 13,26 C20.1769134,26 26,20.1769134 26,13 C26,5.82308657 20.1714764,0 13,0 Z M13,24.9560853 C6.34504391,24.9560853 1.04391468,19.6549561 1.04391468,13 C1.04391468,6.34504391 6.34504391,1.04391468 13,1.04391468 C19.6549561,1.04391468 24.9560853,6.34504391 24.9560853,13 C24.9560853,19.6549561 19.6549561,24.9560853 13,24.9560853 Z" id="Shape" fill-rule="nonzero"></path>
                            <path d="M23.6240209,12 L21.3759791,12 C21.1527415,12 21,12.1979064 21,12.499974 C21,12.8020936 21.1488251,13 21.3759791,13 L23.6240209,13 C23.8472585,13 24,12.8020936 24,12.499974 C23.9255875,12.2968595 23.772846,12 23.6240209,12 Z" id="Path"></path>
                        </g>
                    </g>
                </g>
            </g>
        </g>
    </g>
</svg>